<?xml version="1.0" standalone="no"?>
<!DOCTYPE svg PUBLIC "-//W3C//DTD SVG 20010904//EN"
 "http://www.w3.org/TR/2001/REC-SVG-20010904/DTD/svg10.dtd">
<svg version="1.0" xmlns="http://www.w3.org/2000/svg"
 width="32.000000pt" height="32.000000pt" viewBox="0 0 32.000000 32.000000"
 preserveAspectRatio="xMidYMid meet">

<g transform="translate(0.000000,32.000000) scale(0.100000,-0.100000)"
fill="#000000" stroke="none">
<path d="M158 305 c-27 -15 -58 -62 -58 -87 0 -7 9 5 19 27 18 40 53 65 92 65
51 0 99 -49 99 -101 0 -23 -27 -79 -38 -79 -5 0 -17 -7 -28 -15 -18 -13 -18
-14 4 -8 37 9 72 59 72 104 0 79 -93 133 -162 94z"/>
<path d="M187 280 c-26 -31 -22 -68 8 -76 14 -3 25 -10 25 -15 0 -5 -11 -9
-25 -9 -29 0 -33 -17 -7 -36 15 -12 13 -13 -20 -14 -31 0 -38 4 -38 19 0 59
-32 68 -46 14 -8 -35 -12 -38 -46 -41 l-38 -3 0 -59 0 -58 95 -1 94 -1 8 53
c4 28 8 57 8 62 0 6 10 20 23 31 31 30 30 72 -3 80 -14 3 -25 10 -25 15 0 5
11 9 25 9 29 0 33 17 8 36 -24 18 -26 17 -46 -6z m43 -10 c12 -8 9 -10 -12
-10 -36 0 -40 -37 -5 -42 26 -4 35 -39 13 -57 -11 -9 -20 -10 -33 -2 -16 9
-15 10 10 11 35 0 39 37 5 42 -26 3 -35 32 -18 53 14 17 20 18 40 5z m-110
-121 c0 -27 2 -29 40 -29 41 0 57 -19 18 -21 -17 -1 -19 -2 -5 -6 22 -6 22
-23 0 -24 -17 -1 -17 -2 0 -6 25 -6 21 -23 -5 -24 -17 -1 -19 -2 -5 -6 39 -10
14 -24 -40 -21 l-58 3 -3 38 c-2 24 2 45 11 55 8 10 18 32 22 50 8 38 25 33
25 -9z m-70 -89 c0 -43 -3 -50 -20 -50 -17 0 -20 7 -20 50 0 43 3 50 20 50 17
0 20 -7 20 -50z"/>
</g>
</svg>
