<?xml version="1.0" standalone="no"?>
<!DOCTYPE svg PUBLIC "-//W3C//DTD SVG 20010904//EN"
 "http://www.w3.org/TR/2001/REC-SVG-20010904/DTD/svg10.dtd">
<svg version="1.0" xmlns="http://www.w3.org/2000/svg"
 width="24.000000pt" height="24.000000pt" viewBox="0 0 24.000000 24.000000"
 preserveAspectRatio="xMidYMid meet">

<g transform="translate(0.000000,24.000000) scale(0.100000,-0.100000)"
fill="#000000" stroke="none">
<path d="M40 231 c0 -5 -9 -11 -20 -14 -18 -5 -20 -14 -20 -99 0 -60 4 -98 12
-106 16 -16 200 -16 216 0 8 8 12 46 12 105 0 80 -3 95 -17 100 -10 4 -22 11
-26 17 -6 8 -10 7 -14 -1 -6 -16 -123 -18 -123 -3 0 6 -4 10 -10 10 -5 0 -10
-4 -10 -9z m4 -43 c5 -10 7 -10 12 0 8 16 120 16 128 0 5 -10 7 -10 12 0 8 17
24 15 24 -3 0 -12 -18 -15 -100 -15 -82 0 -100 3 -100 15 0 18 16 20 24 3z
m176 -103 l0 -65 -100 0 -100 0 0 65 0 65 100 0 100 0 0 -65z"/>
<path d="M75 120 c3 -5 8 -10 11 -10 2 0 4 5 4 10 0 6 -5 10 -11 10 -5 0 -7
-4 -4 -10z"/>
<path d="M110 120 c0 -5 5 -10 10 -10 6 0 10 5 10 10 0 6 -4 10 -10 10 -5 0
-10 -4 -10 -10z"/>
<path d="M150 119 c0 -5 5 -7 10 -4 6 3 10 8 10 11 0 2 -4 4 -10 4 -5 0 -10
-5 -10 -11z"/>
<path d="M75 50 c-3 -5 -1 -10 4 -10 6 0 11 5 11 10 0 6 -2 10 -4 10 -3 0 -8
-4 -11 -10z"/>
<path d="M110 50 c0 -5 5 -10 10 -10 6 0 10 5 10 10 0 6 -4 10 -10 10 -5 0
-10 -4 -10 -10z"/>
<path d="M150 50 c0 -5 5 -10 11 -10 5 0 7 5 4 10 -3 6 -8 10 -11 10 -2 0 -4
-4 -4 -10z"/>
</g>
</svg>
