<?xml version="1.0" standalone="no"?>
<!DOCTYPE svg PUBLIC "-//W3C//DTD SVG 20010904//EN"
 "http://www.w3.org/TR/2001/REC-SVG-20010904/DTD/svg10.dtd">
<svg version="1.0" xmlns="http://www.w3.org/2000/svg"
 width="512.000000pt" height="512.000000pt" viewBox="0 0 512.000000 512.000000"
 preserveAspectRatio="xMidYMid meet">

<g transform="translate(0.000000,512.000000) scale(0.100000,-0.100000)"
fill="#000000" stroke="none">
<path d="M3102 5103 c-42 -20 -56 -41 -86 -129 -13 -38 -66 -153 -118 -255
-111 -215 -129 -280 -108 -396 6 -37 17 -81 24 -98 l14 -32 -187 -6 c-271 -9
-481 -46 -721 -129 -393 -137 -767 -394 -1013 -698 -569 -703 -594 -1661 -63
-2378 92 -124 256 -296 371 -389 351 -284 806 -469 1262 -515 l123 -12 25 24
c51 48 17 130 -56 130 -15 0 -81 7 -146 15 -880 114 -1600 735 -1772 1527
-148 686 133 1397 727 1840 399 298 874 447 1387 436 l160 -3 55 -45 c31 -25
77 -56 103 -70 43 -23 47 -28 47 -62 0 -20 34 -161 75 -312 74 -273 75 -277
58 -309 -23 -45 -20 -108 10 -207 35 -112 84 -160 166 -160 27 0 28 -1 60
-142 17 -79 31 -148 31 -153 0 -6 -26 -23 -57 -39 -127 -62 -249 -170 -292
-259 -103 -212 16 -418 331 -574 109 -54 190 -107 235 -154 28 -31 36 -54 78
-234 25 -110 60 -247 77 -305 41 -139 43 -164 18 -235 -47 -136 -150 -267
-275 -350 -115 -76 -355 -150 -605 -186 -86 -13 -152 -27 -162 -36 -40 -36
-26 -103 27 -123 54 -20 456 59 630 125 203 76 365 210 462 383 l30 52 52
-117 c62 -142 213 -417 250 -457 33 -36 96 -66 141 -66 80 0 159 63 181 143
14 52 5 354 -17 547 -26 228 -113 624 -155 707 -19 35 -61 48 -98 29 -46 -24
-47 -51 -7 -193 75 -268 108 -467 126 -758 14 -226 11 -304 -12 -319 -29 -18
-47 2 -116 125 -152 269 -241 479 -318 749 -45 156 -445 1872 -439 1879 10 10
210 60 216 53 5 -6 342 -1073 396 -1254 16 -56 46 -88 83 -88 34 0 70 38 70
74 0 16 -59 216 -130 445 -72 229 -133 424 -136 433 -4 12 11 25 58 49 81 43
202 164 246 246 44 83 72 198 72 294 0 195 -73 344 -238 485 -90 77 -278 205
-380 259 -61 31 -73 42 -83 74 -6 20 -17 46 -25 57 -11 19 -8 30 26 100 88
177 94 344 18 500 -49 102 -110 155 -314 278 -61 36 -144 93 -183 127 -100 84
-141 96 -209 62z m333 -329 c155 -93 205 -137 242 -213 25 -50 28 -67 28 -156
0 -99 -1 -101 -45 -189 -25 -49 -52 -93 -60 -97 -23 -11 -363 -99 -382 -99 -9
0 -50 23 -92 50 -123 83 -188 194 -188 320 0 80 17 126 105 285 55 99 99 195
123 273 2 8 28 -6 71 -41 38 -30 127 -90 198 -133z m205 -826 c23 -54 141
-511 133 -518 -8 -8 -309 -91 -338 -93 -14 -2 -30 45 -85 248 -38 138 -69 258
-70 268 0 10 8 21 18 24 21 9 314 91 325 92 4 1 12 -9 17 -21z m398 -325 c169
-120 241 -203 282 -324 19 -54 21 -80 18 -161 -4 -84 -9 -105 -41 -171 -19
-42 -54 -96 -77 -121 -41 -45 -127 -106 -148 -106 -9 0 -92 239 -92 266 0 5
14 17 31 26 18 11 38 36 51 65 19 43 20 53 9 104 -26 127 -41 162 -91 209 -46
44 -49 51 -84 178 -20 73 -36 137 -36 143 0 10 76 -35 178 -108z m-126 -397
c10 -38 17 -70 16 -71 -7 -7 -491 -136 -494 -132 -3 2 -13 34 -24 71 -13 46
-15 68 -8 73 18 10 461 131 477 129 8 0 22 -29 33 -70z m-266 -1133 c40 -175
74 -321 74 -324 0 -9 -227 111 -282 149 -169 116 -187 265 -46 387 45 38 169
117 176 111 2 -2 37 -147 78 -323z"/>
<path d="M2445 3827 c-69 -23 -118 -54 -168 -103 -191 -192 -134 -509 113
-628 60 -28 73 -31 165 -31 92 0 105 3 166 32 79 39 150 110 187 191 24 50 27
69 27 162 0 93 -3 112 -27 162 -38 81 -108 152 -187 190 -55 27 -80 32 -151
35 -52 2 -101 -2 -125 -10z m210 -161 c89 -41 135 -114 135 -216 0 -102 -46
-175 -135 -216 -117 -55 -256 -7 -317 110 -31 57 -31 155 0 212 25 49 94 111
137 123 57 17 128 12 180 -13z"/>
<path d="M1550 3421 c-108 -35 -200 -116 -248 -219 -23 -50 -27 -70 -27 -162
0 -93 3 -111 27 -163 38 -80 117 -161 197 -200 61 -29 74 -32 166 -32 134 1
197 25 280 109 94 94 133 200 121 325 -6 74 -47 169 -96 225 -103 116 -274
164 -420 117z m248 -167 c122 -75 157 -234 79 -351 -110 -163 -351 -145 -433
32 -59 126 -6 270 121 332 70 34 165 28 233 -13z"/>
<path d="M1210 2496 c-82 -17 -161 -61 -223 -123 -64 -64 -100 -126 -122 -208
-93 -359 263 -671 612 -537 108 41 190 121 246 240 27 57 32 81 35 162 3 78 0
106 -18 159 -23 70 -72 150 -117 193 -50 47 -143 96 -213 112 -80 19 -124 19
-200 2z m241 -178 c98 -52 150 -132 157 -244 6 -97 -15 -158 -79 -228 -64 -70
-129 -99 -225 -99 -119 0 -215 61 -276 175 -33 62 -33 194 1 258 85 163 265
222 422 138z"/>
<path d="M1730 1504 c-111 -30 -202 -107 -254 -214 -28 -60 -31 -73 -31 -165
1 -88 4 -107 28 -157 41 -84 107 -152 185 -190 62 -31 73 -33 172 -33 93 0
112 3 162 27 80 37 152 108 191 187 30 61 32 74 32 166 0 91 -3 106 -31 165
-84 175 -270 263 -454 214z m207 -162 c118 -60 165 -198 109 -317 -41 -89
-114 -135 -216 -135 -102 0 -175 46 -216 135 -64 136 7 287 156 336 39 13 123
3 167 -19z"/>
<path d="M2645 1207 c-144 -48 -234 -143 -271 -287 -32 -125 2 -252 93 -350
194 -210 525 -156 645 106 19 41 23 66 23 154 0 93 -3 112 -27 162 -37 80
-107 152 -186 190 -55 27 -77 32 -151 35 -52 2 -102 -2 -126 -10z m186 -149
c94 -28 159 -121 159 -226 0 -207 -235 -317 -390 -184 -106 90 -117 235 -27
338 68 77 158 102 258 72z"/>
</g>
</svg>
