<?xml version="1.0" standalone="no"?>
<!DOCTYPE svg PUBLIC "-//W3C//DTD SVG 20010904//EN"
 "http://www.w3.org/TR/2001/REC-SVG-20010904/DTD/svg10.dtd">
<svg version="1.0" xmlns="http://www.w3.org/2000/svg"
 width="24.000000pt" height="24.000000pt" viewBox="0 0 24.000000 24.000000"
 preserveAspectRatio="xMidYMid meet">

<g transform="translate(0.000000,24.000000) scale(0.100000,-0.100000)"
fill="#000000" stroke="none">
<path d="M57 220 c-35 -28 -42 -56 -22 -86 12 -19 14 -29 5 -39 -18 -22 -8
-70 15 -71 15 -1 16 0 3 3 -10 3 -18 12 -17 21 0 11 2 12 6 4 10 -24 22 -1 16
32 -5 30 -2 35 18 39 19 3 17 5 -8 6 -36 1 -47 26 -13 28 11 1 20 -2 20 -6 0
-4 18 -7 40 -6 22 1 40 -2 40 -7 0 -4 6 -5 14 -2 8 3 17 0 22 -7 4 -7 2 -15
-4 -17 -7 -2 -12 -17 -12 -32 0 -29 0 -29 -50 -23 -35 4 -50 2 -50 -6 0 -7 5
-9 11 -5 6 3 15 0 20 -7 7 -11 9 -11 9 -1 0 8 5 10 13 5 6 -4 23 -8 36 -8 32
0 39 -22 9 -28 -20 -4 -20 -4 5 -6 22 -1 27 3 27 23 0 13 -6 26 -12 29 -10 3
-10 7 -2 18 6 8 14 36 18 62 5 45 3 51 -23 78 -36 36 -95 40 -134 9z m81 -4
c26 17 42 6 42 -30 l0 -33 -47 8 c-27 4 -54 8 -60 8 -17 1 -17 48 0 54 6 2 20
-1 30 -7 12 -8 22 -8 35 0z m-5 7 c-7 -2 -19 -2 -25 0 -7 3 -2 5 12 5 14 0 19
-2 13 -5z m-83 -38 c0 -8 -4 -15 -10 -15 -5 0 -7 7 -4 15 4 8 8 15 10 15 2 0
4 -7 4 -15z m151 -28 c-8 -8 -11 -3 -11 19 1 25 2 27 11 11 8 -14 8 -22 0 -30z"/>
<path d="M123 113 c9 -2 25 -2 35 0 9 3 1 5 -18 5 -19 0 -27 -2 -17 -5z"/>
<path d="M103 13 c9 -2 25 -2 35 0 9 3 1 5 -18 5 -19 0 -27 -2 -17 -5z"/>
</g>
</svg>
