<?xml version="1.0" standalone="no"?>
<!DOCTYPE svg PUBLIC "-//W3C//DTD SVG 20010904//EN"
 "http://www.w3.org/TR/2001/REC-SVG-20010904/DTD/svg10.dtd">
<svg version="1.0" xmlns="http://www.w3.org/2000/svg"
 width="512.000000pt" height="512.000000pt" viewBox="0 0 512.000000 512.000000"
 preserveAspectRatio="xMidYMid meet">

<g transform="translate(0.000000,512.000000) scale(0.100000,-0.100000)"
fill="#000000" stroke="none">
<path d="M1554 4790 c-143 -26 -266 -92 -380 -205 -90 -89 -142 -173 -182
-293 -24 -73 -26 -90 -30 -344 l-4 -268 -294 0 -295 0 -24 -25 c-14 -13 -25
-32 -25 -42 0 -10 -36 -736 -80 -1613 -44 -877 -80 -1603 -80 -1613 0 -10 11
-29 25 -42 l24 -25 2351 0 2351 0 24 25 c14 13 25 33 25 43 0 10 -36 486 -80
1057 -44 571 -80 1044 -80 1052 0 8 -11 25 -25 38 l-24 25 -591 0 -590 0 0 28
c0 15 -11 245 -25 512 -14 267 -25 495 -25 508 0 13 -11 34 -25 47 l-24 25
-295 0 -294 0 -4 263 c-5 296 -10 326 -80 467 -54 107 -178 238 -281 295 -123
68 -203 88 -352 89 -96 0 -145 -4 -187 -17 -52 -16 -61 -16 -115 -1 -70 19
-239 26 -309 14z m85 -218 c-78 -83 -131 -171 -166 -277 -26 -77 -27 -91 -31
-347 l-4 -268 -159 0 -159 0 0 223 c0 252 8 312 54 412 88 189 282 319 485
324 l43 1 -63 -68z m704 35 c91 -33 145 -67 211 -133 65 -65 99 -118 135 -213
24 -63 25 -77 29 -323 l4 -258 -161 0 -161 0 0 229 c0 242 -10 326 -49 432
-29 78 -92 172 -159 243 l-57 58 72 -6 c40 -3 101 -17 136 -29z m-359 -58
c101 -63 176 -159 225 -288 24 -63 25 -77 29 -323 l4 -258 -322 0 -322 0 4
258 c4 246 5 260 29 323 35 91 71 149 127 206 53 54 137 113 162 113 9 0 38
-14 64 -31z m-862 -1740 l78 -52 0 -258 0 -259 -160 0 -160 0 0 258 0 257 78
52 c42 28 79 52 81 52 3 1 40 -22 83 -50z m2955 -1344 c39 -511 72 -942 72
-957 l1 -28 -951 0 -952 0 6 63 c3 34 35 460 72 947 37 487 69 891 71 898 3
10 169 12 806 10 l803 -3 72 -930z m323 186 l74 -749 -84 -128 c-56 -84 -86
-121 -87 -108 -3 21 -133 1712 -133 1725 0 5 35 9 78 9 l77 0 75 -749z m244
727 c5 -22 127 -1617 126 -1648 0 -8 -29 29 -65 82 l-65 97 -70 703 c-38 387
-72 722 -75 746 l-6 42 75 0 c70 0 76 -2 80 -22z m-1 -1773 c43 -63 77 -117
77 -120 0 -3 -72 -5 -160 -5 -88 0 -160 2 -160 5 0 10 153 235 160 235 4 0 41
-52 83 -115z"/>
<path d="M2745 2055 l-25 -24 0 -364 c0 -303 3 -372 16 -418 39 -133 139 -233
273 -273 83 -24 309 -22 392 4 119 37 222 140 259 259 18 58 20 92 20 428 l0
364 -25 24 c-29 30 -74 32 -106 6 l-24 -19 -5 -374 c-5 -358 -6 -375 -27 -413
-25 -47 -64 -85 -113 -111 -30 -16 -58 -19 -180 -19 -122 0 -150 3 -180 19
-49 26 -88 64 -113 111 -21 38 -22 55 -27 413 l-5 374 -24 19 c-32 26 -77 24
-106 -6z"/>
</g>
</svg>
