<?xml version="1.0" standalone="no"?>
<!DOCTYPE svg PUBLIC "-//W3C//DTD SVG 20010904//EN"
 "http://www.w3.org/TR/2001/REC-SVG-20010904/DTD/svg10.dtd">
<svg version="1.0" xmlns="http://www.w3.org/2000/svg"
 width="512.000000pt" height="512.000000pt" viewBox="0 0 512.000000 512.000000"
 preserveAspectRatio="xMidYMid meet">

<g transform="translate(0.000000,512.000000) scale(0.100000,-0.100000)"
fill="#000000" stroke="none">
<path d="M320 4947 c-49 -16 -133 -102 -148 -153 -17 -59 -17 -1049 0 -1108
16 -55 99 -138 154 -154 30 -9 181 -12 556 -12 590 0 578 -2 651 80 24 26 49
66 55 88 17 56 17 1048 0 1104 -6 22 -31 62 -55 88 -73 82 -60 80 -657 79
-349 -1 -533 -5 -556 -12z m1073 -158 c14 -6 30 -22 36 -36 15 -34 15 -992 0
-1026 -6 -14 -22 -30 -36 -36 -16 -8 -176 -11 -513 -11 -337 0 -497 3 -513 11
-14 6 -30 22 -36 36 -8 16 -11 179 -11 524 l0 500 25 24 24 25 500 0 c345 0
508 -3 524 -11z"/>
<path d="M480 4560 l0 -80 80 0 80 0 0 80 0 80 -80 0 -80 0 0 -80z"/>
<path d="M800 4560 l0 -80 240 0 240 0 0 80 0 80 -240 0 -240 0 0 -80z"/>
<path d="M480 4240 l0 -80 400 0 400 0 0 80 0 80 -400 0 -400 0 0 -80z"/>
<path d="M480 3920 l0 -80 400 0 400 0 0 80 0 80 -400 0 -400 0 0 -80z"/>
<path d="M4100 4946 c-216 -46 -404 -189 -499 -378 -61 -123 -76 -190 -75
-338 1 -107 5 -137 27 -205 38 -115 90 -198 182 -290 131 -131 277 -199 454
-212 434 -30 796 330 767 765 -6 107 -43 228 -97 320 -49 82 -180 211 -262
257 -148 82 -343 113 -497 81z m289 -172 c94 -27 172 -73 242 -143 78 -78 89
-106 89 -232 0 -178 -60 -321 -189 -450 -129 -129 -272 -189 -450 -189 -126 0
-154 11 -232 89 -108 108 -163 240 -162 391 0 153 55 284 162 391 145 145 346
198 540 143z"/>
<path d="M4332 4367 l-172 -172 -93 93 -93 92 -57 -58 -57 -58 133 -132 c118
-117 138 -132 167 -132 31 0 54 20 247 213 l213 212 -57 57 -58 58 -173 -173z"/>
<path d="M2205 4629 c-91 -18 -204 -81 -279 -155 -113 -114 -166 -249 -166
-427 l0 -79 60 -62 c63 -66 69 -76 45 -76 -26 0 -84 -61 -96 -100 -6 -20 -10
-71 -8 -112 4 -64 8 -80 33 -112 36 -48 79 -66 154 -66 l59 0 12 -52 c29 -132
120 -259 249 -348 21 -14 21 -18 10 -87 -10 -62 -15 -73 -31 -73 -21 0 -305
-88 -397 -123 -30 -11 -76 -33 -101 -49 -25 -15 -49 -28 -51 -28 -3 0 -62 69
-131 153 -111 136 -127 160 -141 215 -8 34 -25 81 -37 103 -32 64 -111 136
-187 172 l-67 32 -462 3 -463 3 -26 -26 c-25 -25 -26 -31 -21 -93 9 -88 60
-194 123 -251 25 -24 75 -57 112 -74 66 -31 70 -32 254 -37 l187 -5 261 -409
260 -410 0 -68 0 -68 -495 0 -496 0 -24 -25 -25 -24 0 -616 0 -615 -55 0 c-46
0 -60 -4 -80 -25 -25 -24 -25 -26 -25 -215 0 -189 0 -191 25 -215 l24 -25
2351 0 2351 0 24 25 c25 24 25 26 25 215 0 189 0 191 -25 215 -20 21 -34 25
-80 25 l-55 0 0 615 0 616 -25 24 -24 25 -496 0 -495 0 0 71 c0 83 -33 24 302
546 l219 341 188 4 187 3 76 37 c129 64 212 182 225 321 5 61 4 67 -21 92
l-26 26 -463 -3 -463 -3 -76 -38 c-116 -57 -181 -138 -214 -269 -14 -55 -30
-79 -141 -215 -69 -84 -128 -153 -131 -153 -2 0 -26 13 -51 28 -25 16 -71 38
-101 49 -92 35 -376 123 -397 123 -16 0 -21 11 -31 73 -11 69 -11 73 10 87
129 89 220 216 249 346 l12 52 73 4 c78 4 108 18 148 72 18 23 21 42 21 125 0
90 -2 100 -26 132 -15 19 -39 41 -55 49 -16 8 -31 16 -33 17 -2 2 24 32 59 69
l63 65 -6 112 c-7 169 -54 281 -161 390 -62 63 -119 99 -215 136 -65 25 -69
25 -396 27 -183 2 -352 -2 -380 -7z m706 -168 c45 -14 118 -91 153 -160 34
-65 56 -152 56 -215 l0 -49 -22 21 c-17 15 -108 42 -345 101 -178 45 -336 81
-353 81 -33 0 -340 -149 -377 -183 -17 -15 -23 -32 -23 -61 l0 -41 -41 41 -41
42 11 81 c7 52 21 101 40 138 54 107 168 192 283 212 75 13 614 7 659 -8z
m-216 -457 l265 -66 0 -227 c0 -300 -18 -370 -120 -472 -218 -218 -586 -115
-666 186 -10 35 -14 121 -14 287 l0 238 118 59 c64 33 125 60 135 60 9 1 136
-29 282 -65z m-695 -364 l0 -40 -40 0 -40 0 0 40 0 40 40 0 40 0 0 -40z m1200
0 l0 -40 -40 0 -40 0 0 40 0 40 40 0 40 0 0 -40z m-2060 -464 c57 -30 120 -99
120 -131 0 -3 -172 -5 -382 -3 -420 3 -412 2 -481 67 -26 23 -57 71 -57 86 0
3 172 5 383 3 350 -3 385 -5 417 -22z m3640 19 c0 -15 -31 -63 -57 -86 -69
-65 -61 -64 -480 -67 -211 -2 -383 0 -383 3 0 13 24 51 49 78 27 30 68 55 111
68 28 8 760 12 760 4z m-2084 -338 l17 -109 -77 -76 -76 -77 -76 77 -77 76 17
109 18 108 118 0 118 0 18 -108z m-1059 -365 c175 -213 332 -405 349 -427 l31
-39 59 48 c32 27 60 51 62 55 1 4 -72 98 -163 208 -91 111 -165 207 -165 213
0 11 148 86 154 79 23 -27 340 -478 343 -489 2 -8 -30 -218 -72 -467 -41 -249
-75 -464 -75 -479 0 -23 35 -63 182 -211 169 -169 185 -183 218 -183 33 0 49
14 218 183 147 148 182 188 182 211 0 15 -34 230 -75 479 -42 249 -74 459 -72
467 3 11 320 462 343 489 6 7 154 -68 154 -79 0 -6 -74 -102 -165 -213 -91
-110 -164 -204 -163 -208 7 -18 121 -100 128 -93 4 5 64 77 132 160 67 83 221
271 342 417 l218 267 144 0 143 0 -141 -217 c-184 -285 -303 -474 -328 -523
-16 -31 -20 -59 -20 -130 l0 -90 -97 0 c-86 0 -99 -3 -120 -22 l-23 -21 0
-619 0 -618 -800 0 -800 0 0 615 0 616 -25 24 c-22 23 -32 25 -120 25 l-95 0
0 94 0 94 -238 373 c-131 206 -241 380 -246 387 -6 9 24 12 138 12 l145 0 318
-388z m738 58 c198 -198 172 -198 372 2 l152 152 41 -13 c23 -7 40 -16 38 -20
-2 -4 -70 -103 -153 -219 l-150 -211 -115 -1 -115 0 -156 219 -157 219 32 10
c17 5 38 10 46 11 8 1 83 -66 165 -149z m285 -527 c6 -32 13 -68 16 -80 4 -23
4 -23 -116 -23 -111 0 -121 2 -116 18 2 9 7 37 11 62 12 84 7 80 105 80 l89 0
11 -57z m-1860 -398 c0 -131 1 -137 25 -160 24 -25 26 -25 215 -25 189 0 191
0 215 25 24 23 25 29 25 160 l0 135 160 0 160 0 0 -560 0 -560 -560 0 -560 0
0 560 0 560 160 0 160 0 0 -135z m320 55 l0 -80 -80 0 -80 0 0 80 0 80 80 0
80 0 0 -80z m1585 48 c3 -18 23 -136 45 -263 l38 -230 -111 -112 c-61 -62
-116 -113 -121 -113 -5 0 -58 48 -118 108 l-109 107 41 245 c22 135 42 255 45
268 5 22 8 22 145 22 l139 0 6 -32z m1135 -103 c0 -131 1 -137 25 -160 24 -25
26 -25 215 -25 189 0 191 0 215 25 24 23 25 29 25 160 l0 135 160 0 160 0 0
-560 0 -560 -560 0 -560 0 0 560 0 560 160 0 160 0 0 -135z m320 55 l0 -80
-80 0 -80 0 0 80 0 80 80 0 80 0 0 -80z m640 -1280 l0 -80 -2240 0 -2240 0 0
80 0 80 2240 0 2240 0 0 -80z"/>
</g>
</svg>
