<?xml version="1.0" standalone="no"?>
<!DOCTYPE svg PUBLIC "-//W3C//DTD SVG 20010904//EN"
 "http://www.w3.org/TR/2001/REC-SVG-20010904/DTD/svg10.dtd">
<svg version="1.0" xmlns="http://www.w3.org/2000/svg"
 width="24.000000pt" height="24.000000pt" viewBox="0 0 24.000000 24.000000"
 preserveAspectRatio="xMidYMid meet">

<g transform="translate(0.000000,24.000000) scale(0.100000,-0.100000)"
fill="#000000" stroke="none">
<path d="M39 231 c11 -7 9 -10 -10 -13 -30 -4 -32 -32 -1 -36 24 -4 30 -34 12
-62 -8 -13 -10 -13 -10 2 0 9 -6 19 -12 21 -8 3 -6 6 5 6 9 1 17 5 17 10 0 5
-9 7 -20 4 -23 -6 -25 -14 -8 -31 9 -9 9 -15 0 -24 -15 -15 -15 -28 -1 -28 5
0 7 4 4 10 -4 6 8 10 29 10 29 0 36 -4 36 -20 0 -22 -16 -27 -22 -8 -3 7 -7 3
-10 -8 -5 -18 -1 -19 40 -14 29 3 47 11 49 20 3 10 2 11 -4 4 -10 -14 -43 -14
-43 0 0 6 -3 21 -6 34 -4 13 -2 22 5 22 6 0 11 -7 11 -15 0 -11 11 -15 36 -15
23 0 42 -6 50 -17 12 -16 13 -14 8 17 -4 26 -3 31 5 20 6 -8 11 -25 11 -37 0
-19 -5 -23 -31 -23 -41 0 -37 -33 5 -38 22 -3 26 -6 15 -13 -8 -5 -9 -9 -3 -9
6 0 19 9 29 20 15 16 16 22 5 36 -12 13 -11 17 1 25 12 8 11 12 -5 24 -20 15
-20 15 0 30 16 12 17 16 5 24 -12 8 -13 12 -1 25 11 14 10 20 -5 36 -10 11
-23 20 -29 20 -6 0 -5 -4 3 -9 7 -5 10 -14 7 -20 -4 -6 -1 -25 8 -41 14 -30
14 -30 -15 -30 -21 0 -29 5 -30 18 -1 9 -6 2 -11 -15 -8 -23 -17 -33 -31 -33
-13 0 -17 5 -13 15 4 11 -2 15 -22 15 -21 0 -28 5 -29 20 -2 22 12 27 20 8 3
-7 3 1 0 18 -3 18 0 35 6 38 7 5 11 -4 11 -23 0 -22 4 -29 14 -25 10 4 16 -3
19 -23 l4 -28 2 28 c1 28 27 37 47 17 7 -7 9 -1 6 20 -3 25 -9 30 -31 30 -20
0 -23 2 -11 10 8 5 10 10 4 10 -5 0 -16 -6 -22 -12 -10 -10 -15 -10 -22 1 -7
12 -11 13 -25 1 -12 -10 -19 -10 -27 -2 -7 7 -17 12 -22 12 -6 0 -5 -4 3 -9z
m31 -31 c0 -5 -13 -10 -30 -10 -17 0 -30 5 -30 10 0 6 13 10 30 10 17 0 30 -4
30 -10z m110 0 c0 -5 -16 -10 -35 -10 -19 0 -35 5 -35 10 0 6 16 10 35 10 19
0 35 -4 35 -10z m50 0 c0 -5 -4 -10 -10 -10 -5 0 -10 5 -10 10 0 6 5 10 10 10
6 0 10 -4 10 -10z m-160 -80 c0 -5 -4 -10 -10 -10 -5 0 -10 5 -10 10 0 6 5 10
10 10 6 0 10 -4 10 -10z m110 0 c0 -5 -4 -10 -10 -10 -5 0 -10 5 -10 10 0 6 5
10 10 10 6 0 10 -4 10 -10z m50 -80 c0 -5 -16 -10 -35 -10 -19 0 -35 5 -35 10
0 6 16 10 35 10 19 0 35 -4 35 -10z"/>
<path d="M16 61 c-10 -11 -15 -25 -11 -30 11 -19 23 -12 27 19 5 36 6 35 -16
11z"/>
<path d="M42 15 c-15 -18 -1 -20 16 -3 8 8 15 8 27 -2 14 -12 18 -11 25 1 7
11 12 11 22 1 6 -6 16 -12 21 -12 5 0 2 7 -7 15 -19 19 -87 19 -104 0z"/>
</g>
</svg>
